<svg width="130" height="49" viewBox="0 0 130 49" fill="none" xmlns="http://www.w3.org/2000/svg">
<path d="M13.104 36.324C12.336 36.324 11.7 36.156 11.196 35.82C10.716 35.46 10.32 34.92 10.008 34.2L0.936 14.04C0.456 12.96 0.456 12.072 0.936 11.376C1.44 10.656 2.196 10.296 3.204 10.296C4.02 10.296 4.632 10.488 5.04 10.872C5.472 11.232 5.844 11.772 6.156 12.492L13.212 28.836L20.268 12.456C20.556 11.76 20.916 11.232 21.348 10.872C21.804 10.488 22.416 10.296 23.184 10.296C24.12 10.296 24.816 10.656 25.272 11.376C25.752 12.072 25.752 12.96 25.272 14.04L16.2 34.2C15.864 34.92 15.456 35.46 14.976 35.82C14.52 36.156 13.896 36.324 13.104 36.324ZM35.0688 36.396C32.9808 36.396 31.1808 36.024 29.6688 35.28C28.1808 34.512 27.0288 33.444 26.2128 32.076C25.4208 30.684 25.0248 29.052 25.0248 27.18C25.0248 25.356 25.4088 23.76 26.1768 22.392C26.9688 21 28.0368 19.92 29.3808 19.152C30.7488 18.36 32.3208 17.964 34.0968 17.964C36.6648 17.964 38.7048 18.78 40.2168 20.412C41.7288 22.02 42.4848 24.204 42.4848 26.964C42.4848 27.876 41.9208 28.332 40.7928 28.332H30.2088C30.4008 29.724 30.9048 30.744 31.7208 31.392C32.5608 32.016 33.7128 32.328 35.1768 32.328C35.7528 32.328 36.4008 32.268 37.1208 32.148C37.8648 32.004 38.5728 31.764 39.2448 31.428C39.9408 31.092 40.5288 31.032 41.0088 31.248C41.4888 31.44 41.8128 31.776 41.9808 32.256C42.1728 32.736 42.1728 33.24 41.9808 33.768C41.8128 34.272 41.4168 34.692 40.7928 35.028C39.9528 35.484 39.0168 35.82 37.9848 36.036C36.9768 36.276 36.0048 36.396 35.0688 36.396ZM34.3128 21.564C33.1608 21.564 32.2248 21.912 31.5048 22.608C30.8088 23.304 30.3768 24.276 30.2088 25.524H37.9848C37.8408 22.884 36.6168 21.564 34.3128 21.564ZM54.2171 36.396C49.2491 36.396 46.7651 33.984 46.7651 29.16V22.392H45.2531C43.8371 22.392 43.1291 21.72 43.1291 20.376C43.1291 19.008 43.8371 18.324 45.2531 18.324H46.7651V15.588C46.7651 13.74 47.6771 12.816 49.5011 12.816C51.3011 12.816 52.2011 13.74 52.2011 15.588V18.324H55.6211C57.0131 18.324 57.7091 19.008 57.7091 20.376C57.7091 21.72 57.0131 22.392 55.6211 22.392H52.2011V28.944C52.2011 29.952 52.4291 30.708 52.8851 31.212C53.3651 31.716 54.1211 31.968 55.1531 31.968C55.5131 31.968 55.8491 31.932 56.1611 31.86C56.4731 31.788 56.7611 31.74 57.0251 31.716C57.3611 31.692 57.6371 31.8 57.8531 32.04C58.0691 32.28 58.1771 32.772 58.1771 33.516C58.1771 34.116 58.0811 34.632 57.8891 35.064C57.6971 35.472 57.3611 35.772 56.8811 35.964C56.5691 36.084 56.1371 36.18 55.5851 36.252C55.0571 36.348 54.6011 36.396 54.2171 36.396Z" fill="#242851"/>
<path d="M68.6998 36.396C66.7798 36.396 65.0998 36.024 63.6598 35.28C62.2438 34.512 61.1518 33.432 60.3838 32.04C59.6158 30.648 59.2318 29.004 59.2318 27.108C59.2318 25.212 59.6158 23.58 60.3838 22.212C61.1518 20.844 62.2438 19.8 63.6598 19.08C65.0998 18.336 66.7798 17.964 68.6998 17.964C69.4438 17.964 70.2358 18.06 71.0758 18.252C71.9398 18.42 72.7678 18.72 73.5598 19.152C74.1598 19.44 74.5318 19.848 74.6758 20.376C74.8198 20.88 74.7838 21.384 74.5678 21.888C74.3758 22.392 74.0518 22.764 73.5958 23.004C73.1638 23.22 72.6478 23.172 72.0478 22.86C71.0878 22.356 70.1518 22.104 69.2398 22.104C67.8238 22.104 66.7198 22.548 65.9278 23.436C65.1598 24.3 64.7758 25.536 64.7758 27.144C64.7758 28.728 65.1598 29.976 65.9278 30.888C66.7198 31.776 67.8238 32.22 69.2398 32.22C69.6718 32.22 70.1278 32.172 70.6078 32.076C71.0878 31.956 71.5678 31.764 72.0478 31.5C72.6478 31.188 73.1638 31.152 73.5958 31.392C74.0518 31.632 74.3638 32.004 74.5318 32.508C74.6998 32.988 74.7118 33.492 74.5678 34.02C74.4238 34.548 74.0638 34.956 73.4878 35.244C72.6718 35.652 71.8558 35.94 71.0398 36.108C70.2238 36.3 69.4438 36.396 68.6998 36.396ZM83.1929 36.396C81.8729 36.396 80.7089 36.144 79.7009 35.64C78.6929 35.136 77.8889 34.452 77.2889 33.588C76.7129 32.724 76.4249 31.752 76.4249 30.672C76.4249 29.4 76.7609 28.38 77.4329 27.612C78.1049 26.844 79.1969 26.304 80.7089 25.992C82.2209 25.656 84.2249 25.488 86.7209 25.488H88.0169V24.876C88.0169 23.82 87.7769 23.076 87.2969 22.644C86.8169 22.188 86.0009 21.96 84.8489 21.96C84.2009 21.96 83.4929 22.044 82.7249 22.212C81.9569 22.356 81.1289 22.608 80.2409 22.968C79.5689 23.256 79.0049 23.28 78.5489 23.04C78.0929 22.776 77.7929 22.392 77.6489 21.888C77.5049 21.36 77.5409 20.832 77.7569 20.304C77.9969 19.776 78.4529 19.392 79.1249 19.152C80.2529 18.72 81.3089 18.42 82.2929 18.252C83.3009 18.06 84.2249 17.964 85.0649 17.964C87.8009 17.964 89.8409 18.588 91.1849 19.836C92.5289 21.06 93.2009 22.968 93.2009 25.56V33.552C93.2009 35.4 92.3609 36.324 90.6809 36.324C88.9769 36.324 88.1249 35.4 88.1249 33.552V33.336C87.7649 34.272 87.1529 35.016 86.2889 35.568C85.4489 36.12 84.4169 36.396 83.1929 36.396ZM84.4169 32.76C85.4249 32.76 86.2769 32.412 86.9729 31.716C87.6689 31.02 88.0169 30.12 88.0169 29.016V28.296H86.7569C84.9089 28.296 83.6009 28.464 82.8329 28.8C82.0649 29.112 81.6809 29.664 81.6809 30.456C81.6809 31.128 81.9089 31.68 82.3649 32.112C82.8449 32.544 83.5289 32.76 84.4169 32.76ZM100.064 36.324C98.192 36.324 97.256 35.4 97.256 33.552V20.772C97.256 18.948 98.144 18.036 99.92 18.036C101.696 18.036 102.584 18.948 102.584 20.772V21.42C103.448 19.284 105.236 18.132 107.948 17.964C108.548 17.916 109.004 18.072 109.316 18.432C109.652 18.768 109.832 19.332 109.856 20.124C109.904 20.868 109.748 21.456 109.388 21.888C109.052 22.32 108.476 22.584 107.66 22.68L106.832 22.752C104.144 23.016 102.8 24.384 102.8 26.856V33.552C102.8 35.4 101.888 36.324 100.064 36.324ZM120.956 36.396C118.868 36.396 117.068 36.024 115.556 35.28C114.068 34.512 112.916 33.444 112.1 32.076C111.308 30.684 110.912 29.052 110.912 27.18C110.912 25.356 111.296 23.76 112.063 22.392C112.856 21 113.924 19.92 115.268 19.152C116.636 18.36 118.208 17.964 119.984 17.964C122.552 17.964 124.592 18.78 126.104 20.412C127.616 22.02 128.372 24.204 128.372 26.964C128.372 27.876 127.808 28.332 126.68 28.332H116.096C116.288 29.724 116.792 30.744 117.608 31.392C118.448 32.016 119.6 32.328 121.064 32.328C121.64 32.328 122.288 32.268 123.008 32.148C123.752 32.004 124.46 31.764 125.132 31.428C125.828 31.092 126.416 31.032 126.896 31.248C127.376 31.44 127.7 31.776 127.867 32.256C128.06 32.736 128.06 33.24 127.867 33.768C127.7 34.272 127.304 34.692 126.68 35.028C125.84 35.484 124.904 35.82 123.872 36.036C122.864 36.276 121.892 36.396 120.956 36.396ZM120.2 21.564C119.048 21.564 118.112 21.912 117.392 22.608C116.696 23.304 116.264 24.276 116.096 25.524H123.872C123.728 22.884 122.504 21.564 120.2 21.564Z" fill="#FF7852"/>
</svg>
